# xmcd
#
# Track frame offsets: 
#        150
#        14903
#        26214
#        42249
#        66674
#        87585
#        102124
#        129555
#        151969
#        176756
#        202902
#        230223
#        257700
#
# Disc length: 3788 seconds
#
# Revision: 2
# Processed by: cddbd v1.5.2PL0 Copyright (c) Steve Scherf et al.
# Submitted via: ExactAudioCopy v1.0b3
#
DISCID=bf0eca0d
DTITLE=Various Artist - Hed Kandi: Kandi Lounge
DYEAR=2008
DGENRE=Electronic
TTITLE0=Simian Mobile Disco - I Believe
TTITLE1=DJ T-Rock and Squashy Nice - Pretty Girl With A Crooked Smile
TTITLE2=Pacha Massive - Don't Let Go
TTITLE3=Rodney Hunter ft. Earl Zinger - Physical
TTITLE4=D'Nell - 1st Magic Groove (Shur-I-Kan Remix)
TTITLE5=Tennishero - Midnight Love
TTITLE6=Studio - Life's A Beach (Todd Terje Remix)
TTITLE7=Ananda Project - Where The Music Takes You
TTITLE8=Dorfmeister vs. MDLA - Boogie No More (Reverso 68 Remix)
TTITLE9=John Dahlbäck - Wonder
TTITLE10=Miguel Migs - Let Me Be (Petalpusher Vocal Mix)
TTITLE11=Restless Soul ft. Shea Soul - Tricks
TTITLE12=Osunlade - April
EXTD=
EXTT0=
EXTT1=
EXTT2=
EXTT3=
EXTT4=
EXTT5=
EXTT6=
EXTT7=
EXTT8=
EXTT9=
EXTT10=
EXTT11=
EXTT12=
PLAYORDER=
